<?xml version="1.0" encoding="UTF-8"?>
<svg id="Layer_9" data-name="Layer 9" xmlns="http://www.w3.org/2000/svg" xmlns:xlink="http://www.w3.org/1999/xlink" viewBox="0 0 350 100">
  <defs>
    <style>
      .cls-1 {
        fill: #f26c21;
      }

      .cls-2 {
        fill: #fff;
      }

      .cls-3 {
        fill: #f36c24;
      }

      .cls-4 {
        fill: url(#linear-gradient);
      }
    </style>
    <linearGradient id="linear-gradient" x1="227.87" y1="21.72" x2="245.78" y2="21.72" gradientUnits="userSpaceOnUse">
      <stop offset="0" stop-color="#fff"/>
      <stop offset=".34" stop-color="#fff"/>
      <stop offset=".45" stop-color="#f8d3c0"/>
      <stop offset=".64" stop-color="#ec8853"/>
      <stop offset=".72" stop-color="#e86a28"/>
      <stop offset=".84" stop-color="#ef6b25"/>
      <stop offset="1" stop-color="#f36c24"/>
    </linearGradient>
  </defs>
  <g>
    <g>
      <path class="cls-2" d="M12.52,95.04l-2.82-4.9h-1.53v4.9h-2.01v-12.24h4.23c.94,0,1.74.16,2.39.49.65.33,1.14.77,1.46,1.32.32.55.48,1.17.48,1.85,0,.8-.23,1.52-.7,2.18-.46.65-1.18,1.1-2.14,1.33l3.03,5.07h-2.4ZM8.17,88.54h2.22c.75,0,1.32-.19,1.7-.56.38-.38.57-.88.57-1.52s-.19-1.13-.56-1.49c-.38-.36-.95-.54-1.71-.54h-2.22v4.1Z"/>
      <path class="cls-2" d="M19.31,84.42v3.59h4.23v1.64h-4.23v3.75h4.76v1.64h-6.76v-12.26h6.76v1.64h-4.76Z"/>
      <path class="cls-2" d="M37.08,82.79l-4.6,12.24h-2.33l-4.62-12.24h2.15l3.63,10.18,3.65-10.18h2.11Z"/>
      <path class="cls-2" d="M41.19,94.36c-.96-.53-1.71-1.28-2.27-2.24-.56-.96-.84-2.03-.84-3.23s.28-2.27.84-3.22c.56-.95,1.32-1.69,2.27-2.23.96-.53,2.01-.8,3.14-.8s2.2.27,3.16.8c.96.53,1.71,1.28,2.26,2.23.55.95.83,2.03.83,3.22s-.28,2.28-.83,3.23c-.55.96-1.31,1.7-2.26,2.24-.96.53-2.01.8-3.16.8s-2.19-.27-3.14-.8ZM46.51,92.86c.63-.37,1.13-.9,1.49-1.59.36-.69.54-1.48.54-2.39s-.18-1.7-.54-2.38c-.36-.68-.85-1.2-1.49-1.57-.63-.36-1.36-.55-2.17-.55s-1.53.18-2.17.55c-.63.36-1.13.89-1.49,1.57-.36.68-.54,1.47-.54,2.38s.18,1.7.54,2.39c.36.69.85,1.22,1.49,1.59.63.37,1.36.55,2.17.55s1.53-.18,2.17-.55Z"/>
      <path class="cls-2" d="M54.57,93.42h4.14v1.62h-6.15v-12.24h2.01v10.62Z"/>
      <path class="cls-2" d="M62.38,82.79v7.8c0,.93.24,1.63.73,2.1.49.47,1.17.7,2.03.7s1.56-.23,2.05-.7c.49-.47.73-1.17.73-2.1v-7.8h2.01v7.77c0,1-.22,1.84-.65,2.54-.43.69-1.02,1.21-1.74,1.55-.73.34-1.53.51-2.41.51s-1.68-.17-2.4-.51c-.72-.34-1.29-.86-1.72-1.55s-.63-1.54-.63-2.54v-7.77h2.01Z"/>
      <path class="cls-2" d="M80.45,82.79v1.64h-3.26v10.61h-2.01v-10.61h-3.28v-1.64h8.54Z"/>
      <path class="cls-2" d="M84.49,82.79v12.24h-2.01v-12.24h2.01Z"/>
      <path class="cls-2" d="M89.57,94.36c-.96-.53-1.71-1.28-2.27-2.24-.56-.96-.84-2.03-.84-3.23s.28-2.27.84-3.22c.56-.95,1.32-1.69,2.27-2.23.96-.53,2.01-.8,3.14-.8s2.2.27,3.16.8c.96.53,1.71,1.28,2.26,2.23.55.95.83,2.03.83,3.22s-.28,2.28-.83,3.23c-.55.96-1.31,1.7-2.26,2.24-.96.53-2.01.8-3.16.8s-2.19-.27-3.14-.8ZM94.88,92.86c.63-.37,1.13-.9,1.49-1.59.36-.69.54-1.48.54-2.39s-.18-1.7-.54-2.38c-.36-.68-.85-1.2-1.49-1.57-.63-.36-1.36-.55-2.17-.55s-1.53.18-2.17.55c-.63.36-1.13.89-1.49,1.57-.36.68-.54,1.47-.54,2.38s.18,1.7.54,2.39c.36.69.85,1.22,1.49,1.59.63.37,1.36.55,2.17.55s1.53-.18,2.17-.55Z"/>
      <path class="cls-2" d="M111,95.04h-2.01l-6.04-9.14v9.14h-2.01v-12.26h2.01l6.04,9.13v-9.13h2.01v12.26Z"/>
      <path class="cls-2" d="M132.51,93.29h5.69v1.74h-8.07v-1.57l5.67-8.93h-5.67v-1.74h8.07v1.57l-5.69,8.93Z"/>
      <path class="cls-2" d="M142.41,82.79v12.24h-2.01v-12.24h2.01Z"/>
      <path class="cls-2" d="M155.11,95.04h-2.01l-6.04-9.14v9.14h-2.01v-12.26h2.01l6.04,9.13v-9.13h2.01v12.26Z"/>
      <path class="cls-2" d="M166.61,86.32c-.32-.61-.76-1.07-1.32-1.38-.56-.31-1.22-.47-1.96-.47-.81,0-1.53.18-2.17.55-.63.36-1.13.88-1.49,1.55-.36.67-.54,1.44-.54,2.33s.18,1.66.54,2.33c.36.68.85,1.2,1.49,1.56.63.36,1.36.55,2.17.55,1.09,0,1.98-.31,2.66-.92.68-.61,1.1-1.44,1.25-2.48h-4.6v-1.6h6.75v1.57c-.13.95-.47,1.83-1.01,2.62-.55.8-1.26,1.44-2.13,1.91-.88.48-1.85.71-2.92.71-1.15,0-2.2-.27-3.15-.8-.95-.53-1.71-1.28-2.26-2.23-.56-.95-.84-2.03-.84-3.22s.28-2.27.84-3.22c.56-.95,1.32-1.69,2.27-2.23.96-.53,2.01-.8,3.14-.8,1.3,0,2.46.32,3.48.96,1.02.64,1.75,1.55,2.21,2.72h-2.41Z"/>
      <path class="cls-2" d="M183.86,82.79v1.64h-3.26v10.61h-2.01v-10.61h-3.28v-1.64h8.54Z"/>
      <path class="cls-2" d="M192.25,95.04l-2.82-4.9h-1.53v4.9h-2.01v-12.24h4.23c.94,0,1.74.16,2.39.49.65.33,1.14.77,1.46,1.32.32.55.48,1.17.48,1.85,0,.8-.23,1.52-.7,2.18-.46.65-1.18,1.1-2.14,1.33l3.03,5.07h-2.4ZM187.9,88.54h2.22c.75,0,1.32-.19,1.7-.56.38-.38.57-.88.57-1.52s-.19-1.13-.56-1.49c-.38-.36-.95-.54-1.71-.54h-2.22v4.1Z"/>
      <path class="cls-2" d="M204.4,92.54h-5.13l-.88,2.5h-2.1l4.39-12.26h2.33l4.39,12.26h-2.11l-.88-2.5ZM203.84,90.9l-1.99-5.69-2.01,5.69h4Z"/>
      <path class="cls-2" d="M219.36,95.04h-2.01l-6.04-9.14v9.14h-2.01v-12.26h2.01l6.04,9.13v-9.13h2.01v12.26Z"/>
      <path class="cls-2" d="M223.81,94.73c-.66-.29-1.17-.7-1.55-1.22-.38-.53-.56-1.15-.56-1.85h2.15c.05.53.26.96.63,1.3.37.34.89.51,1.56.51s1.23-.17,1.62-.5c.39-.33.58-.77.58-1.29,0-.41-.12-.75-.36-1-.24-.26-.54-.46-.9-.6-.36-.14-.85-.29-1.49-.46-.8-.21-1.45-.43-1.95-.64-.5-.22-.92-.55-1.28-1.01-.35-.46-.53-1.07-.53-1.83,0-.7.18-1.32.53-1.85.35-.53.85-.93,1.48-1.22.63-.28,1.37-.42,2.2-.42,1.19,0,2.16.3,2.92.89.76.59,1.18,1.41,1.26,2.44h-2.22c-.04-.45-.25-.83-.63-1.15-.39-.32-.9-.48-1.53-.48-.58,0-1.05.15-1.41.44-.36.29-.55.72-.55,1.27,0,.38.11.68.34.92.23.24.52.43.87.57.35.14.83.29,1.44.46.81.22,1.47.45,1.98.67.51.22.95.57,1.3,1.03.36.46.54,1.08.54,1.86,0,.62-.17,1.21-.5,1.76-.33.55-.82,1-1.46,1.33-.64.33-1.39.5-2.26.5-.82,0-1.56-.14-2.22-.43Z"/>
      <path class="cls-2" d="M239.85,82.79v1.64h-5.2v3.61h4.05v1.64h-4.05v5.36h-2.01v-12.24h7.21Z"/>
      <path class="cls-2" d="M244.15,94.36c-.96-.53-1.71-1.28-2.27-2.24-.56-.96-.84-2.03-.84-3.23s.28-2.27.84-3.22c.56-.95,1.32-1.69,2.27-2.23.96-.53,2.01-.8,3.14-.8s2.2.27,3.16.8c.96.53,1.71,1.28,2.26,2.23.55.95.83,2.03.83,3.22s-.28,2.28-.83,3.23c-.55.96-1.31,1.7-2.26,2.24-.96.53-2.01.8-3.16.8s-2.19-.27-3.14-.8ZM249.46,92.86c.63-.37,1.13-.9,1.49-1.59.36-.69.54-1.48.54-2.39s-.18-1.7-.54-2.38c-.36-.68-.85-1.2-1.49-1.57-.63-.36-1.36-.55-2.17-.55s-1.53.18-2.17.55c-.63.36-1.13.89-1.49,1.57-.36.68-.54,1.47-.54,2.38s.18,1.7.54,2.39c.36.69.85,1.22,1.49,1.59.63.37,1.36.55,2.17.55s1.53-.18,2.17-.55Z"/>
      <path class="cls-2" d="M261.88,95.04l-2.82-4.9h-1.53v4.9h-2.01v-12.24h4.23c.94,0,1.74.16,2.39.49.65.33,1.14.77,1.46,1.32.32.55.48,1.17.48,1.85,0,.8-.23,1.52-.7,2.18-.46.65-1.18,1.1-2.14,1.33l3.03,5.07h-2.4ZM257.53,88.54h2.22c.75,0,1.32-.19,1.7-.56.38-.38.57-.88.57-1.52s-.19-1.13-.56-1.49c-.38-.36-.95-.54-1.71-.54h-2.22v4.1Z"/>
      <path class="cls-2" d="M279.55,82.79v12.24h-2.01v-8.39l-3.73,8.39h-1.39l-3.75-8.39v8.39h-2.01v-12.24h2.17l4.3,9.6,4.28-9.6h2.15Z"/>
      <path class="cls-2" d="M289.58,92.54h-5.13l-.88,2.5h-2.1l4.39-12.26h2.33l4.39,12.26h-2.11l-.88-2.5ZM289.01,90.9l-1.99-5.69-2.01,5.69h4Z"/>
      <path class="cls-2" d="M302.38,82.79v1.64h-3.26v10.61h-2.01v-10.61h-3.28v-1.64h8.54Z"/>
      <path class="cls-2" d="M306.42,82.79v12.24h-2.01v-12.24h2.01Z"/>
      <path class="cls-2" d="M311.5,94.36c-.96-.53-1.71-1.28-2.27-2.24-.56-.96-.84-2.03-.84-3.23s.28-2.27.84-3.22c.56-.95,1.32-1.69,2.27-2.23.96-.53,2.01-.8,3.14-.8s2.2.27,3.16.8c.96.53,1.71,1.28,2.26,2.23.55.95.83,2.03.83,3.22s-.28,2.28-.83,3.23c-.55.96-1.31,1.7-2.26,2.24-.96.53-2.01.8-3.16.8s-2.19-.27-3.14-.8ZM316.81,92.86c.63-.37,1.13-.9,1.49-1.59.36-.69.54-1.48.54-2.39s-.18-1.7-.54-2.38c-.36-.68-.85-1.2-1.49-1.57-.63-.36-1.36-.55-2.17-.55s-1.53.18-2.17.55c-.63.36-1.13.89-1.49,1.57-.36.68-.54,1.47-.54,2.38s.18,1.7.54,2.39c.36.69.85,1.22,1.49,1.59.63.37,1.36.55,2.17.55s1.53-.18,2.17-.55Z"/>
      <path class="cls-2" d="M332.93,95.04h-2.01l-6.04-9.14v9.14h-2.01v-12.26h2.01l6.04,9.13v-9.13h2.01v12.26Z"/>
      <path class="cls-2" d="M337.39,94.73c-.66-.29-1.17-.7-1.55-1.22-.38-.53-.56-1.15-.56-1.85h2.15c.05.53.26.96.63,1.3.37.34.89.51,1.56.51s1.23-.17,1.62-.5c.39-.33.58-.77.58-1.29,0-.41-.12-.75-.36-1-.24-.26-.54-.46-.9-.6-.36-.14-.85-.29-1.49-.46-.8-.21-1.45-.43-1.95-.64-.5-.22-.92-.55-1.28-1.01-.35-.46-.53-1.07-.53-1.83,0-.7.18-1.32.53-1.85.35-.53.85-.93,1.48-1.22.63-.28,1.37-.42,2.2-.42,1.19,0,2.16.3,2.92.89.76.59,1.18,1.41,1.26,2.44h-2.22c-.04-.45-.25-.83-.63-1.15-.39-.32-.9-.48-1.53-.48-.58,0-1.05.15-1.41.44-.36.29-.55.72-.55,1.27,0,.38.11.68.34.92.23.24.52.43.87.57.35.14.83.29,1.44.46.81.22,1.47.45,1.98.67.51.22.95.57,1.3,1.03.36.46.54,1.08.54,1.86,0,.62-.17,1.21-.5,1.76-.33.55-.82,1-1.46,1.33-.64.33-1.39.5-2.26.5-.82,0-1.56-.14-2.22-.43Z"/>
    </g>
    <path class="cls-1" d="M121.02,92.54h-5.13l-.88,2.5h-2.1l4.39-12.26h2.33l4.39,12.26h-2.11l-.88-2.5ZM120.46,90.9l-1.99-5.69-2.01,5.69h4Z"/>
    <path class="cls-1" d="M127.93,82.79v12.24h-2.01v-12.24h2.01Z"/>
  </g>
  <g>
    <g>
      <g>
        <g>
          <path class="cls-2" d="M15.53,54.75v4.13h-4.6v14.54h-4.8v-14.54H1.57v-4.13h13.96Z"/>
          <path class="cls-2" d="M26.06,73.42l-3.43-6.88h-.51v6.88h-4.8v-18.67h7.57c1.39,0,2.56.26,3.53.78.96.52,1.69,1.24,2.18,2.15.49.91.73,1.93.73,3.06,0,1.27-.32,2.39-.97,3.35-.65.96-1.59,1.65-2.83,2.05l3.89,7.28h-5.36ZM22.12,62.99h2.38c.65,0,1.14-.17,1.47-.5.33-.33.49-.82.49-1.46,0-.6-.17-1.07-.5-1.42-.33-.34-.82-.52-1.46-.52h-2.38v3.89Z"/>
          <path class="cls-2" d="M38.31,54.75v18.67h-4.8v-18.67h4.8Z"/>
          <path class="cls-2" d="M51.97,70.37h-6.12l-.93,3.04h-5.05l6.29-18.67h5.54l6.27,18.67h-5.07l-.93-3.04ZM50.77,66.4l-1.86-6.04-1.84,6.04h3.7Z"/>
          <path class="cls-2" d="M75.54,73.42h-4.8l-6.39-10.43v10.43h-4.8v-18.67h4.8l6.39,10.56v-10.56h4.8v18.67Z"/>
          <path class="cls-2" d="M83.52,69.21h7.18v4.21h-12.56v-3.95l7.1-10.54h-7.1v-4.18h12.56v3.94l-7.18,10.51Z"/>
        </g>
        <g>
          <path class="cls-2" d="M91.82,57.48c-.16-.07-.28-.16-.37-.29-.09-.13-.14-.27-.14-.44h.6c0,.12.05.21.12.27s.17.1.3.1.23-.03.31-.09c.07-.06.11-.14.11-.25,0-.08-.03-.15-.08-.2-.05-.05-.11-.1-.19-.13-.08-.03-.18-.06-.31-.1-.18-.05-.33-.11-.44-.16-.11-.05-.21-.13-.29-.24-.08-.11-.12-.25-.12-.42,0-.16.04-.31.12-.43s.2-.22.35-.28c.15-.07.32-.1.51-.1.29,0,.52.07.7.21.18.14.28.33.3.59h-.62c0-.1-.05-.18-.12-.24s-.18-.09-.3-.09c-.11,0-.2.03-.26.08s-.1.14-.1.24c0,.07.02.14.07.19.05.05.11.09.18.12.07.03.18.07.31.11.18.05.33.11.44.16.11.05.21.13.3.24s.12.25.12.42c0,.15-.04.29-.12.41-.08.13-.19.23-.34.31-.15.08-.33.11-.53.11s-.37-.03-.53-.1Z"/>
          <path class="cls-2" d="M96.86,54.76v2.79h-.56v-1.81l-.75,1.81h-.42l-.75-1.81v1.81h-.56v-2.79h.63l.89,2.07.89-2.07h.63Z"/>
        </g>
      </g>
      <g>
        <g>
          <path class="cls-2" d="M30.36,8.24c-.29-.17-.63-.26-.98-.26-1.09,0-1.97.88-1.97,1.97,0,0,0,0,0,0h0v33h0s0,0,0,0c0,1.09.88,1.97,1.97,1.97.36,0,.69-.1.98-.26h0s2.27-1.31,2.27-1.31v-4.54l-.77.45-.08.04s-.08.02-.12.02c-.16,0-.29-.12-.32-.27V13.84c.02-.15.15-.27.32-.27.04,0,.08,0,.11.02l.08.05.77.44v-4.54l-2.27-1.31h0Z"/>
          <path class="cls-2" d="M65.76,28.64h0s-2.35-1.37-2.35-1.37l-3.94,2.27.86.5.07.04c.08.06.13.15.13.25s-.05.2-.13.26l-.07.04-21.79,12.55s-.1.07-.19.07c-.17,0-.31-.13-.32-.3V9.95c.01-.17.15-.3.32-.3.04,0,.09,0,.12.02l.07.04,21.79,12.55.09.05c.07.06.12.15.12.25s-.05.2-.13.25l-.08.04-20.84,12v4.54l26.28-15.14h0c.59-.34.99-.97.99-1.7s-.4-1.36-.99-1.7h0S37.08,4.33,37.08,4.33c-.3-.18-.65-.29-1.02-.29-1.09,0-1.97.88-1.97,1.97,0,.02,0,.03,0,.05h0v40.82h0c0,1.09.88,1.97,1.97,1.97.36,0,.7-.1.99-.27h0s28.72-16.53,28.72-16.53h0c.29-.17.54-.41.72-.72.54-.94.22-2.14-.72-2.68Z"/>
          <polygon class="cls-2" points="39.48 13.49 39.48 18.03 52.61 25.59 56.56 23.32 39.48 13.49"/>
        </g>
        <polygon class="cls-1" points="39.48 34.85 39.48 39.39 61.97 26.44 58.03 24.17 39.48 34.85"/>
      </g>
    </g>
    <g>
      <path class="cls-2" d="M121.09,52.13c1.17-2.12,2.81-3.78,4.91-4.96,2.1-1.19,4.48-1.78,7.13-1.78,3.26,0,6.05.86,8.37,2.58,2.32,1.72,3.87,4.07,4.65,7.04h-7.35c-.55-1.15-1.32-2.02-2.33-2.62-1-.6-2.14-.9-3.42-.9-2.06,0-3.73.72-5,2.15-1.28,1.43-1.92,3.35-1.92,5.75s.64,4.31,1.92,5.75c1.28,1.43,2.94,2.15,5,2.15,1.28,0,2.42-.3,3.42-.9,1-.6,1.78-1.47,2.33-2.62h7.35c-.78,2.97-2.33,5.31-4.65,7.02-2.32,1.71-5.11,2.56-8.37,2.56-2.66,0-5.04-.59-7.13-1.78-2.1-1.19-3.73-2.83-4.91-4.94-1.17-2.11-1.76-4.52-1.76-7.23s.59-5.13,1.76-7.25Z"/>
      <path class="cls-2" d="M156.13,71.62c-2.15-1.2-3.86-2.87-5.12-5.02-1.26-2.15-1.9-4.57-1.9-7.25s.63-5.09,1.9-7.23c1.26-2.14,2.97-3.81,5.12-5,2.15-1.2,4.51-1.8,7.09-1.8s4.94.6,7.09,1.8c2.15,1.2,3.84,2.87,5.08,5,1.24,2.14,1.86,4.55,1.86,7.23s-.63,5.1-1.88,7.25c-1.25,2.15-2.94,3.82-5.08,5.02-2.14,1.2-4.5,1.8-7.08,1.8s-4.94-.6-7.09-1.8ZM168.48,65.13c1.32-1.46,1.97-3.39,1.97-5.79s-.66-4.36-1.97-5.8c-1.32-1.45-3.07-2.17-5.26-2.17s-3.98.72-5.3,2.15c-1.32,1.43-1.97,3.37-1.97,5.82s.66,4.36,1.97,5.8c1.32,1.45,3.08,2.17,5.3,2.17s3.94-.73,5.26-2.19Z"/>
      <path class="cls-2" d="M205.52,73.14h-6.68l-11.18-16.93v16.93h-6.68v-27.44h6.68l11.18,17v-17h6.68v27.44Z"/>
      <path class="cls-2" d="M210.99,52.13c1.17-2.12,2.81-3.78,4.91-4.96,2.1-1.19,4.48-1.78,7.13-1.78,3.26,0,6.05.86,8.37,2.58,2.32,1.72,3.87,4.07,4.65,7.04h-7.35c-.55-1.15-1.32-2.02-2.33-2.62-1-.6-2.14-.9-3.42-.9-2.06,0-3.73.72-5,2.15-1.28,1.43-1.92,3.35-1.92,5.75s.64,4.31,1.92,5.75c1.28,1.43,2.94,2.15,5,2.15,1.28,0,2.42-.3,3.42-.9,1-.6,1.78-1.47,2.33-2.62h7.35c-.78,2.97-2.33,5.31-4.65,7.02-2.32,1.71-5.11,2.56-8.37,2.56-2.66,0-5.04-.59-7.13-1.78-2.1-1.19-3.73-2.83-4.91-4.94-1.17-2.11-1.76-4.52-1.76-7.23s.59-5.13,1.76-7.25Z"/>
      <path class="cls-2" d="M246.84,45.7v27.44h-6.68v-27.44h6.68Z"/>
      <path class="cls-2" d="M258.37,51.06v5.55h8.95v5.16h-8.95v6.02h10.12v5.35h-16.81v-27.44h16.81v5.35h-10.12Z"/>
      <path class="cls-2" d="M286.83,73.14l-5.71-10.36h-1.6v10.36h-6.68v-27.44h11.22c2.16,0,4.01.38,5.53,1.13,1.52.76,2.66,1.79,3.42,3.11.76,1.32,1.13,2.78,1.13,4.4,0,1.82-.51,3.45-1.54,4.89-1.03,1.43-2.55,2.45-4.55,3.05l6.33,10.87h-7.54ZM279.52,58.06h4.14c1.22,0,2.14-.3,2.76-.9.61-.6.92-1.45.92-2.54s-.31-1.86-.92-2.46c-.61-.6-1.53-.9-2.76-.9h-4.14v6.8Z"/>
      <path class="cls-2" d="M318.06,45.7v5.35h-7.27v22.09h-6.68v-22.09h-7.27v-5.35h21.23Z"/>
      <path class="cls-2" d="M327.3,71.62c-2.15-1.2-3.86-2.87-5.12-5.02-1.26-2.15-1.9-4.57-1.9-7.25s.63-5.09,1.9-7.23c1.26-2.14,2.97-3.81,5.12-5,2.15-1.2,4.51-1.8,7.09-1.8s4.94.6,7.09,1.8c2.15,1.2,3.84,2.87,5.08,5,1.24,2.14,1.86,4.55,1.86,7.23s-.63,5.1-1.88,7.25c-1.25,2.15-2.94,3.82-5.08,5.02-2.14,1.2-4.5,1.8-7.08,1.8s-4.94-.6-7.09-1.8ZM339.65,65.13c1.32-1.46,1.97-3.39,1.97-5.79s-.66-4.36-1.97-5.8c-1.32-1.45-3.07-2.17-5.26-2.17s-3.98.72-5.3,2.15c-1.32,1.43-1.97,3.37-1.97,5.82s.66,4.36,1.97,5.8c1.32,1.45,3.08,2.17,5.3,2.17s3.94-.73,5.26-2.19Z"/>
    </g>
    <rect class="cls-3" x="104.62" y="4.04" width=".68" height="69.38"/>
    <g>
      <g>
        <path class="cls-3" d="M248.95,19.78c0,2.08-.53,4.09-1.52,5.9-.37.66-.26,1.5.34,1.97h.03c.78.62,1.92.5,2.4-.37,1.26-2.29,1.93-4.84,1.93-7.48,0-8.71-7.27-15.79-16.23-15.79-6.01,0-11.51,3.21-14.32,8.39-.21.37-.26.8-.13,1.21.11.4.38.74.77.94.78.42,1.74.13,2.16-.62,2.27-4.16,6.7-6.73,11.54-6.73,7.19,0,13.04,5.66,13.04,12.61l-.02-.03Z"/>
        <path class="cls-2" d="M260.21,24.35c-1.41-1.77-3.37-3.02-5.53-3.52-.4-.08-.83-.02-1.2.21-.35.22-.61.58-.7.99s-.02.83.21,1.2c.22.35.58.61.99.7,3.05.7,5.26,3.55,5.26,6.78,0,3.98-3.13,7.48-6.73,7.48h-34.11c-5.29,0-9.59-4.43-9.59-9.89s4.3-9.88,9.59-9.88c1.92,0,3.72.61,5.24,1.63.66.45,1.53.27,2.03-.34v-.03c.62-.74.45-1.79-.34-2.32-2-1.34-4.38-2.13-6.94-2.13-7.03,0-12.76,5.87-12.76,13.06s5.72,13.06,12.76,13.06h34.11c2.64,0,5.15-1.17,7.07-3.29,1.81-2.01,2.85-4.7,2.85-7.35,0-2.3-.78-4.56-2.19-6.36h-.02Z"/>
      </g>
      <path class="cls-2" d="M229.69,32.07c.63-2.58,1.14-3.09,3.73-3.73-2.58-.63-3.09-1.14-3.73-3.73-.63,2.58-1.14,3.09-3.73,3.73,2.58.63,3.09,1.14,3.73,3.73Z"/>
      <path class="cls-4" d="M236.83,30.68c1.62-5.39,3.57-7.34,8.96-8.96-5.39-1.62-7.34-3.57-8.96-8.96-1.62,5.39-3.57,7.34-8.96,8.96,5.39,1.62,7.34,3.57,8.96,8.96Z"/>
      <path class="cls-3" d="M256.18,16.75c.63-2.58,1.14-3.09,3.73-3.73-2.58-.63-3.09-1.14-3.73-3.73-.63,2.58-1.14,3.09-3.73,3.73,2.58.63,3.09,1.14,3.73,3.73Z"/>
    </g>
  </g>
</svg>