<svg width="60" height="60" viewBox="0 0 60 60" fill="none" xmlns="http://www.w3.org/2000/svg">
<path d="M43.8431 27.3102C43.8431 29.2394 43.3515 31.1038 42.4333 32.7826C42.0901 33.3947 42.1921 34.1739 42.7486 34.6098H42.7765C43.4999 35.1849 44.5573 35.0736 45.0025 34.2666C46.1712 32.1426 46.7926 29.7774 46.7926 27.3287C46.7926 19.25 40.0495 12.6832 31.7389 12.6832C26.1645 12.6832 21.0632 15.6605 18.4568 20.4651C18.262 20.8082 18.2157 21.2071 18.3362 21.5874C18.4383 21.9584 18.6887 22.2737 19.0504 22.4592C19.7739 22.8488 20.6643 22.5798 21.0539 21.8842C23.1594 18.0257 27.2683 15.6419 31.7575 15.6419C38.4264 15.6419 43.8524 20.8917 43.8524 27.338L43.8338 27.3102H43.8431Z" fill="#F36C24"/>
<path d="M54.2868 31.549C52.979 29.9072 51.161 28.7478 49.1576 28.2841C48.7866 28.2099 48.3877 28.2655 48.0446 28.4789C47.7199 28.6829 47.4788 29.0168 47.3953 29.3971C47.3118 29.7774 47.3767 30.167 47.5901 30.5101C47.7941 30.8348 48.128 31.0759 48.5083 31.1594C51.3373 31.8087 53.3871 34.4521 53.3871 37.448C53.3871 41.1395 50.4839 44.3859 47.1449 44.3859H15.5071C10.6005 44.3859 6.61211 40.277 6.61211 35.2127C6.61211 30.1484 10.6005 26.0488 15.5071 26.0488C17.2879 26.0488 18.9574 26.6145 20.3673 27.5606C20.9794 27.978 21.7864 27.811 22.2501 27.2453V27.2174C22.8252 26.5311 22.6675 25.5572 21.9348 25.0656C20.0797 23.8227 17.8722 23.09 15.4978 23.09C8.9773 23.09 3.6626 28.5345 3.6626 35.2034C3.6626 41.8723 8.96802 47.3168 15.4978 47.3168H47.1356C49.5842 47.3168 51.9123 46.2316 53.6932 44.2653C55.372 42.401 56.3366 39.9059 56.3366 37.448C56.3366 35.3147 55.6132 33.2185 54.3053 31.549H54.2868Z" fill="#F36C24"/>
<path d="M25.9787 38.7094C26.563 36.3164 27.0361 35.8434 29.4384 35.2498C27.0453 34.6654 26.5723 34.1924 25.9787 31.7901C25.3944 34.1831 24.9213 34.6562 22.519 35.2498C24.9121 35.8341 25.3851 36.3072 25.9787 38.7094Z" fill="#F36C24"/>
<path d="M32.6016 37.4202C34.1042 32.4208 35.9129 30.6122 40.9122 29.1096C35.9129 27.607 34.1042 25.7983 32.6016 20.799C31.099 25.7983 29.2904 27.607 24.291 29.1096C29.2904 30.6122 31.099 32.4208 32.6016 37.4202Z" fill="#F36C24"/>
<path d="M50.5485 24.4998C51.1329 22.1068 51.6059 21.6337 54.0082 21.0401C51.6152 20.4558 51.1421 19.9828 50.5485 17.5805C49.9642 19.9735 49.4912 20.4465 47.0889 21.0401C49.4819 21.6245 49.9549 22.0975 50.5485 24.4998Z" fill="#F36C24"/>
</svg>
