<svg width="32" height="32" viewBox="0 0 32 32" fill="none" xmlns="http://www.w3.org/2000/svg">
<path d="M23.3831 14.5654C23.3831 15.5944 23.1209 16.5887 22.6312 17.484C22.4482 17.8105 22.5026 18.2261 22.7994 18.4586H22.8142C23.2001 18.7653 23.764 18.7059 24.0015 18.2755C24.6248 17.1427 24.9562 15.8813 24.9562 14.5753C24.9562 10.2667 21.3599 6.76435 16.9276 6.76435C13.9545 6.76435 11.2338 8.35227 9.84376 10.9147C9.73988 11.0977 9.71515 11.3104 9.77945 11.5133C9.83387 11.7111 9.96743 11.8793 10.1604 11.9783C10.5462 12.186 11.0211 12.0426 11.2289 11.6716C12.3518 9.6137 14.5432 8.34237 16.9375 8.34237C20.4942 8.34237 23.3881 11.1423 23.3881 14.5803L23.3782 14.5654H23.3831Z" fill="#F36C24"/>
<path d="M28.9532 16.8261C28.2557 15.9505 27.2861 15.3322 26.2176 15.0848C26.0197 15.0453 25.807 15.075 25.624 15.1887C25.4509 15.2976 25.3222 15.4756 25.2777 15.6785C25.2332 15.8813 25.2678 16.089 25.3816 16.2721C25.4904 16.4452 25.6685 16.5738 25.8713 16.6183C27.3801 16.9646 28.4733 18.3745 28.4733 19.9723C28.4733 21.9411 26.925 23.6725 25.1442 23.6725H8.27066C5.65381 23.6725 3.52669 21.481 3.52669 18.7801C3.52669 16.0791 5.65381 13.8927 8.27066 13.8927C9.22044 13.8927 10.1109 14.1944 10.8628 14.699C11.1893 14.9216 11.6196 14.8326 11.867 14.5308V14.516C12.1737 14.1499 12.0896 13.6305 11.6988 13.3683C10.7094 12.7054 9.53209 12.3146 8.26571 12.3146C4.78812 12.3146 1.95361 15.2184 1.95361 18.7751C1.95361 22.3319 4.78317 25.2357 8.26571 25.2357H25.1392C26.4452 25.2357 27.6868 24.6569 28.6366 23.6082C29.532 22.6139 30.0464 21.2832 30.0464 19.9723C30.0464 18.8345 29.6606 17.7165 28.9631 16.8261H28.9532Z" fill="#F36C24"/>
<path d="M13.8554 20.645C14.1671 19.3688 14.4193 19.1165 15.7006 18.7999C14.4243 18.4882 14.172 18.2359 13.8554 16.9547C13.5438 18.231 13.2915 18.4833 12.0103 18.7999C13.2865 19.1115 13.5388 19.3638 13.8554 20.645Z" fill="#F36C24"/>
<path d="M17.3874 19.9574C18.1888 17.2911 19.1534 16.3265 21.8197 15.5251C19.1534 14.7237 18.1888 13.7591 17.3874 11.0928C16.586 13.7591 15.6214 14.7237 12.9551 15.5251C15.6214 16.3265 16.586 17.2911 17.3874 19.9574Z" fill="#F36C24"/>
<path d="M26.9594 13.0666C27.2711 11.7903 27.5233 11.538 28.8046 11.2214C27.5283 10.9098 27.276 10.6575 26.9594 9.37625C26.6478 10.6525 26.3955 10.9048 25.1143 11.2214C26.3905 11.5331 26.6428 11.7853 26.9594 13.0666Z" fill="#F36C24"/>
</svg>
